HIERARCHY
ROOT Hips
{
	OFFSET 0.000000 0.000000 0.000000
	CHANNELS 6 Xposition Yposition Zposition Zrotation Xrotation Yrotation
	JOINT RightUpLeg
	{
		OFFSET -9.711200 0.000000 0.000000
		CHANNELS 3 Zrotation Xrotation Yrotation
		JOINT RightLeg
		{
			OFFSET 0.000000 -42.071800 0.000000
			CHANNELS 3 Zrotation Xrotation Yrotation
			JOINT RightFoot
			{
				OFFSET 0.000000 -40.121000 0.000000
				CHANNELS 3 Zrotation Xrotation Yrotation
				JOINT RightToe
				{
					OFFSET 0.000000 -9.631400 3.100600
					CHANNELS 3 Zrotation Xrotation Yrotation
					JOINT RightToeEnd
					{
						OFFSET 0.000000 -4.048200 4.118000
						CHANNELS 3 Zrotation Xrotation Yrotation
						End Site
						{
						    OFFSET 0.000000 -3.505200 3.565600
						}
					}
				}
			}
		}
	}
	JOINT LeftUpLeg
	{
		OFFSET 9.711200 0.000000 0.000000
		CHANNELS 3 Zrotation Xrotation Yrotation
		JOINT LeftLeg
		{
			OFFSET 0.000000 -42.071800 0.000000
			CHANNELS 3 Zrotation Xrotation Yrotation
			JOINT LeftFoot
			{
				OFFSET 0.000000 -40.121000 0.000000
				CHANNELS 3 Zrotation Xrotation Yrotation
				JOINT LeftToe
				{
					OFFSET 0.000000 -9.631400 3.100600
					CHANNELS 3 Zrotation Xrotation Yrotation
					JOINT LeftToeEnd
					{
						OFFSET 0.000000 -4.048200 4.118000
						CHANNELS 3 Zrotation Xrotation Yrotation
						End Site
						{
						    OFFSET 0.000000 -3.505200 3.565600
						}
					}
				}
			}
		}
	}
	JOINT Spine
	{
		OFFSET 0.000000 14.595200 0.000000
		CHANNELS 3 Zrotation Xrotation Yrotation
		JOINT Spine1
		{
			OFFSET 0.000000 9.770300 0.000000
			CHANNELS 3 Zrotation Xrotation Yrotation
			JOINT Spine2
			{
				OFFSET 0.000000 14.330100 0.000000
				CHANNELS 3 Zrotation Xrotation Yrotation
				JOINT LeftShoulder
				{
					OFFSET 2.000000 14.330100 0.000000
					CHANNELS 3 Zrotation Xrotation Yrotation
					JOINT LeftArm
					{
						OFFSET 14.369100 0.000000 0.000000
						CHANNELS 3 Zrotation Xrotation Yrotation
						JOINT LeftForeArm
						{
							OFFSET 0.000000 -27.196400 0.000000
							CHANNELS 3 Zrotation Xrotation Yrotation
							JOINT LeftHand
							{
								OFFSET 0.000000 -24.849000 0.000000
								CHANNELS 3 Zrotation Xrotation Yrotation
								JOINT LeftFinger0
								{
									OFFSET 0.000000 -7.367300 0.000000
									CHANNELS 3 Zrotation Xrotation Yrotation
									End Site
									{
									    OFFSET 0.000000 -5.000000 0.000000
									}
								}
							}
						}
					}
				}
				JOINT RightShoulder
				{
					OFFSET -2.000000 14.330100 0.000000
					CHANNELS 3 Zrotation Xrotation Yrotation
					JOINT RightArm
					{
						OFFSET -14.369100 0.000000 0.000000
						CHANNELS 3 Zrotation Xrotation Yrotation
						JOINT RightForeArm
						{
							OFFSET 0.000000 -27.196400 0.000000
							CHANNELS 3 Zrotation Xrotation Yrotation
							JOINT RightHand
							{
								OFFSET 0.000000 -24.849000 0.000000
								CHANNELS 3 Zrotation Xrotation Yrotation
								JOINT RightFinger0
								{
									OFFSET 0.000000 -7.367300 0.000000
									CHANNELS 3 Zrotation Xrotation Yrotation
									End Site
									{
									    OFFSET 0.000000 -5.000000 0.000000
									}
								}
							}
						}
					}
				}
				JOINT Neck
				{
					OFFSET 0.000000 14.330100 0.000000
					CHANNELS 3 Zrotation Xrotation Yrotation
					JOINT Head
					{
						OFFSET 0.000000 8.944300 0.000000
						CHANNELS 3 Zrotation Xrotation Yrotation
						JOINT HeadTip
						{
							OFFSET 0.000000 10.000000 0.000000
							CHANNELS 3 Zrotation Xrotation Yrotation
							End Site
							{
							    OFFSET 0.000000 5.000000 0.000000
							}
						}
					}
				}
			}
		}
	}
}
MOTION
Frames:	6
Frame Time:	0.033332
-2.757100 85.879200 -55.861900 4.357017 -3.928445 135.923012 -5.540917 -17.439488 -21.994755 -0.000000 65.804501 -0.000000 4.799277 -31.227526 -23.759658 0.000000 3.296644 -0.000000 -0.000000 0.000000 -0.000000 0.718279 -27.116618 3.255167 0.000000 27.297477 -0.000000 -5.027509 -43.692175 -15.331515 0.000000 9.431979 -0.000000 -0.000000 0.000000 -0.000000 -3.740467 16.440657 11.389619 0.000000 8.434035 0.000000 0.000000 -0.000000 -0.000000 -5.981615 0.000000 6.497713 37.983145 0.133277 156.496307 -0.000000 60.265620 0.000000 -4.780843 -0.204877 168.802924 -0.000000 -0.000000 -0.000000 5.595379 -0.000000 5.515943 -33.192469 -25.634574 45.465258 -0.000398 -69.092835 -0.000274 14.996094 6.710910 15.975605 -0.000000 0.000000 0.000000 0.000000 -0.000000 -0.000000 14.465271 8.135877 -42.529665 -0.000000 -0.000000 0.000000 
-1.823500 86.762300 -56.409700 4.708734 -4.217496 134.717480 -7.193035 -18.147305 -23.154070 -0.000000 63.719203 -0.000000 1.092771 -31.473445 -26.006429 -0.000000 3.540721 -0.000000 -0.000000 -0.000000 0.000000 1.856196 -24.709487 4.346151 0.000000 24.585155 -0.000000 -4.960779 -43.377917 -14.992318 0.000000 9.457181 0.000000 0.000000 -0.000000 -0.000000 -2.610626 15.760952 9.758929 -0.000000 8.337869 0.000000 -0.000000 -0.000000 -0.000000 -4.890697 -0.000000 5.644138 39.541934 -4.133658 160.899645 0.000000 62.138110 0.000000 -4.170120 0.345909 169.125314 -0.000000 0.000000 -0.000000 6.192600 -0.000000 4.938466 -36.149147 -22.191432 42.149635 -0.000303 -63.325060 -0.000187 14.593748 6.812626 14.598462 -0.000000 0.000000 0.000000 -0.000000 -0.000000 -0.000000 14.780690 9.134402 -41.568120 0.000000 -0.000000 -0.000000 
-0.881400 87.371900 -56.928600 4.989842 -4.299755 133.407657 -8.744453 -18.342197 -23.756180 0.000000 61.099210 -0.000000 0.526773 -31.886054 -25.767041 0.000000 3.046130 -0.000000 -0.000000 -0.000000 0.000000 2.745707 -22.623038 5.361468 0.000000 22.703186 0.000000 -4.907822 -43.543394 -14.604422 -0.000000 9.521958 -0.000000 -0.000000 0.000000 0.000000 -1.877073 15.162885 8.049411 -0.000000 8.168407 -0.000000 -0.000000 -0.000000 -0.000000 -3.692104 -0.000000 5.194274 41.850718 -8.040975 165.093149 -0.000000 63.066053 0.000000 -3.866434 0.306212 168.709734 -0.000000 -0.000000 0.000000 6.929866 -0.000000 4.786753 -39.184569 -19.152996 38.612439 -0.000251 -58.786139 -0.000141 13.997549 7.832659 16.984398 0.000000 0.000000 -0.000000 -0.000000 -0.000000 -0.000000 14.988002 10.178830 -40.295388 -0.000000 0.000000 0.000000 
0.060700 87.750500 -57.390100 5.140396 -4.260921 132.001826 -10.285436 -18.319133 -24.351975 -0.000000 58.274209 -0.000000 -0.897459 -33.571980 -26.960939 0.000000 2.251412 -0.000000 0.000000 0.000000 -0.000000 3.505426 -21.002593 6.596901 -0.000000 21.734008 -0.000000 -4.617497 -44.329891 -14.539420 -0.000000 9.723473 -0.000000 -0.000000 -0.000000 -0.000000 -1.470582 14.565479 6.504465 -0.000000 8.013329 -0.000000 -0.000000 0.000000 -0.000000 -2.845349 -0.000000 4.901431 45.342837 -11.582047 168.700160 -0.000000 62.956810 -0.000000 -4.667864 1.027426 167.474867 -0.000000 0.000000 -0.000000 7.922311 -0.000000 4.449147 -42.501230 -16.867557 35.813763 -0.000222 -55.589395 -0.000117 12.941575 8.921184 21.823883 -0.000000 0.000000 -0.000000 -0.000000 0.000000 -0.000000 15.113788 11.115203 -38.964932 0.000000 0.000000 -0.000000 
0.975500 87.968800 -57.765300 5.162966 -4.146621 130.536708 -11.759713 -18.085660 -24.913326 -0.000000 54.980961 -0.000000 -3.078931 -34.476781 -28.594795 -0.000000 2.064906 0.000000 -0.000000 -0.000000 0.000000 4.036305 -19.715660 7.570358 -0.000000 21.217468 0.000000 -4.347580 -45.071837 -14.084363 0.000000 9.357666 -0.000000 -0.000000 0.000000 -0.000000 -1.307474 14.024676 5.290198 0.000000 7.816401 -0.000000 0.000000 0.000000 -0.000000 -1.820147 0.000000 4.343485 48.594328 -13.868015 172.707178 -0.000000 62.614809 -0.000000 -4.909846 1.485071 165.680594 0.000000 -0.000000 0.000000 8.756243 0.000000 3.733485 -45.144321 -15.459381 33.553789 -0.000197 -52.348176 -0.000097 12.099494 9.253568 23.746181 -0.000000 0.000000 -0.000000 0.000000 0.000000 -0.000000 15.230057 12.022462 -37.601835 -0.000000 -0.000000 -0.000000 
1.854900 88.126900 -58.040400 5.100019 -4.007254 129.056705 -12.997325 -17.576756 -25.341348 -0.000000 50.908986 -0.000000 -5.158330 -35.277117 -30.434187 -0.000000 1.728842 -0.000000 -0.000000 -0.000000 -0.000000 4.430027 -18.581518 8.314336 -0.000000 20.781488 0.000000 -4.387923 -45.507098 -13.382147 -0.000000 8.414962 -0.000000 -0.000000 0.000000 -0.000000 -1.275413 13.597438 4.153198 -0.000000 7.622097 -0.000000 0.000000 0.000000 -0.000000 -0.861783 -0.000000 3.997735 51.370920 -15.228057 176.743572 0.000000 62.402568 0.000000 -4.621422 1.344243 164.867893 0.000000 0.000000 0.000000 9.319884 0.000000 3.144995 -46.754862 -14.438576 31.069084 -0.000175 -49.035731 -0.000080 11.448945 9.376801 23.275180 -0.000000 0.000000 -0.000000 0.000000 0.000000 -0.000000 15.262750 12.726866 -36.056970 -0.000000 -0.000000 -0.000000 
